<svg xmlns="http://www.w3.org/2000/svg" viewBox="2813.646 7225 21 21"><defs><style>.a{fill:#818282;stroke:#818282}</style></defs><path class="a" d="M2827.896 7225.5h-7.5a6.251 6.251 0 0 0-6.25 6.25v7.5a6.251 6.251 0 0 0 6.25 6.25h7.5a6.251 6.251 0 0 0 6.25-6.25v-7.5a6.251 6.251 0 0 0-6.25-6.25zm4.375 13.75a4.38 4.38 0 0 1-4.375 4.375h-7.5a4.38 4.38 0 0 1-4.375-4.375v-7.5a4.38 4.38 0 0 1 4.375-4.375h7.5a4.38 4.38 0 0 1 4.375 4.375z"/><path class="a" d="M2824.146 7230.5a5 5 0 1 0 5 5 5 5 0 0 0-5-5zm0 8.125a3.125 3.125 0 1 1 3.125-3.125 3.129 3.129 0 0 1-3.125 3.125z"/><circle class="a" cx=".666" cy=".666" r=".666" transform="translate(2828.855 7229.459)"/></svg>