<svg xmlns="http://www.w3.org/2000/svg" viewBox="1800.445 12.833 220.341 82.06"><defs><style>.b{letter-spacing:.06em}.c{letter-spacing:.02em}.d{letter-spacing:.03em}.e{letter-spacing:.04em}.f{fill:#3c9847}</style></defs><text transform="translate(1897.786 33.882)" fill="#444" font-size="13" font-family="Roboto-Bold,Roboto" font-weight="700" letter-spacing=".05em"><tspan x="0" y="0">Н</tspan><tspan class="b" y="0">И</tspan><tspan y="0">ЖЕ</tspan><tspan class="c" y="0">Г</tspan><tspan y="0">ОР</tspan><tspan class="d" y="0">О</tspan><tspan class="e" y="0">Д</tspan><tspan y="0">СКИЙ</tspan><tspan x="0" y="17">ИН</tspan><tspan class="e" y="17">С</tspan><tspan y="17">Т</tspan><tspan class="e" y="17">И</tspan><tspan y="17">Т</tspan><tspan class="b" y="17">У</tspan><tspan class="c" y="17">Т </tspan><tspan x="0" y="34">ПРИК</tspan><tspan class="b" y="34">ЛА</tspan><tspan y="34">ДНЫХ</tspan><tspan x="0" y="51">ТЕХН</tspan><tspan class="d" y="51">О</tspan><tspan y="51">ЛОГИЙ</tspan></text><path class="f" d="M1823.269 59.072l.044.069.133.177a6.886 6.886 0 0 1-.177-.246zm30.524-19.873l-.08-.069c.1.085.19.177.288.269z"/><path class="f" d="M1823.269 59.072l.044.069.133.177a6.886 6.886 0 0 1-.177-.246zm20.188 9.575q.087-.008.173-.023-.086.016-.173.023z"/><path class="f" d="M1843.457 68.647q.087-.008.173-.023-.086.016-.173.023zm13.321-7.137q.2-.235.39-.469c-.124.15-.275.311-.39.469z"/><path class="f" d="M1856.778 61.51q.2-.235.39-.469c-.124.15-.275.311-.39.469zm0 0q.2-.235.39-.469c-.124.15-.275.311-.39.469zm0 0q.2-.235.39-.469c-.124.15-.275.311-.39.469zm0 0q.2-.235.39-.469c-.124.15-.275.311-.39.469zm-2.985-22.311l-.08-.069c.1.085.19.177.288.269z"/><path class="f" d="M1853.793 39.199l-.08-.069c.1.085.19.177.288.269z"/><g stroke="#232322" stroke-miterlimit="22.926"><path d="M1801.458 51.431l37.585-37.585a3.4 3.4 0 0 1 2.432-1.006 3.358 3.358 0 0 1 2.432 1.006l37.585 37.585a3.436 3.436 0 0 1 1.006 2.432 3.359 3.359 0 0 1-1.006 2.432l-37.585 37.585a3.437 3.437 0 0 1-2.432 1.006 3.359 3.359 0 0 1-2.432-1.006l-37.585-37.585a3.436 3.436 0 0 1-1.006-2.432 3.359 3.359 0 0 1 1.006-2.432zm39.129-36.018l-37.562 37.562a1.278 1.278 0 0 0-.374.889 1.185 1.185 0 0 0 .374.889l37.562 37.587a1.278 1.278 0 0 0 .889.374 1.185 1.185 0 0 0 .889-.374l37.587-37.588a1.278 1.278 0 0 0 .374-.889 1.221 1.221 0 0 0-.374-.889l-37.585-37.562a1.278 1.278 0 0 0-.889-.374 1.221 1.221 0 0 0-.889.374z" fill="#232322" stroke-width=".013"/><path d="M1810.86 21.26h20.769l-22.734 22.733V23.248a1.952 1.952 0 0 1 1.965-1.988zm40.485 0h20.769a1.986 1.986 0 0 1 1.988 1.988v20.769l-22.757-22.757zm22.734 42.45v20.769a1.986 1.986 0 0 1-1.988 1.988h-20.746l22.734-22.757zm-42.45 22.757h-20.769a1.986 1.986 0 0 1-1.988-1.988V63.71l22.757 22.757z" fill-rule="evenodd" fill="#30b30f" stroke-width=".035"/><path d="M1840.586 15.412l-37.562 37.562a1.278 1.278 0 0 0-.374.889 1.185 1.185 0 0 0 .374.889l37.562 37.586a1.278 1.278 0 0 0 .889.374 1.185 1.185 0 0 0 .889-.374l37.586-37.586a1.278 1.278 0 0 0 .374-.889 1.221 1.221 0 0 0-.374-.889l-37.585-37.562a1.278 1.278 0 0 0-.889-.374 1.221 1.221 0 0 0-.889.374z" fill="#f3e63e" stroke-width=".098"/><path d="M1813.386 45.677l3.789-3.812v8.518l4.163-1.123V37.683l3.836-3.7v39.854l-3.836-3.766V57.114l-4.163-.889v9.636l-3.789-3.859V45.677zm26.616-25.563V87.8l-3.578-3.719v-32.58l-2.315 15.46-2.222 12.676-3.649-3.742V32.042l3.578-3.812v28.768l2.315-15.109 2.643-18.547zm14.828 54.331l-3.789 3.836V42.427l-4.186-2.011v42.078l-3.789 3.789V21.494l11.764 11.811v41.14zm3.181-39.105l11.554 11.554v3.438l-3.883-1.8v16.161l-3.789 3.742V46.777L1858.011 45z" fill-rule="evenodd" fill="#fff" stroke-linejoin="round" stroke-width=".907"/></g></svg>