<svg xmlns="http://www.w3.org/2000/svg" viewBox="2865.912 7225.35 14.459 20.3"><defs><style>.a{fill:#818282;stroke:#818282;stroke-width:.3px}</style></defs><path class="a" d="M2873.139 7225.5a5 5 0 1 0 5 5 5 5 0 0 0-5-5zm0 7.5a2.5 2.5 0 1 1 2.5-2.5 2.5 2.5 0 0 1-2.5 2.5z"/><path class="a" d="M2879.771 7235.362a1.249 1.249 0 0 0-1.767 0 6.885 6.885 0 0 1-9.724 0 1.25 1.25 0 0 0-1.767 1.769 9.318 9.318 0 0 0 5.559 2.672l-3.564 3.564a1.25 1.25 0 1 0 1.767 1.767l2.866-2.866 2.866 2.866a1.25 1.25 0 1 0 1.767-1.767l-3.564-3.564a9.318 9.318 0 0 0 5.559-2.672 1.251 1.251 0 0 0 .002-1.769z"/></svg>