<svg xmlns="http://www.w3.org/2000/svg" viewBox="2713.146 7227.5 28.043 16"><path d="M2741.041 7241.952a1.925 1.925 0 0 0-.1-.183 14.534 14.534 0 0 0-2.789-3.227l-.029-.029-.015-.014-.015-.015h-.015q-.934-.891-1.183-1.2a1.124 1.124 0 0 1-.2-1.183 11.023 11.023 0 0 1 1.314-1.913q.6-.774.949-1.241 2.528-3.357 2.188-4.295l-.087-.146a.854.854 0 0 0-.452-.241 2.3 2.3 0 0 0-.935-.036l-4.2.029a.546.546 0 0 0-.292.007l-.19.044-.073.037-.058.044a.649.649 0 0 0-.161.153 1 1 0 0 0-.146.256 23.842 23.842 0 0 1-1.562 3.285q-.54.905-.993 1.57a7.551 7.551 0 0 1-.759.978 5.3 5.3 0 0 1-.555.5q-.248.19-.379.161l-.248-.058a.971.971 0 0 1-.328-.358 1.6 1.6 0 0 1-.168-.569q-.044-.343-.051-.591t.007-.7q.015-.453.015-.613 0-.555.022-1.2t.037-1.029q.015-.38.015-.8a3.374 3.374 0 0 0-.051-.664 2.273 2.273 0 0 0-.153-.467.787.787 0 0 0-.3-.35 1.688 1.688 0 0 0-.489-.2 9.715 9.715 0 0 0-1.971-.19 9.579 9.579 0 0 0-3.495.348 1.967 1.967 0 0 0-.555.438q-.263.321-.073.35a1.79 1.79 0 0 1 1.241.628l.088.175a2.793 2.793 0 0 1 .2.672 6.776 6.776 0 0 1 .131 1.066 11.365 11.365 0 0 1 0 1.825q-.073.759-.139 1.183a2.368 2.368 0 0 1-.2.686 2.9 2.9 0 0 1-.175.321.251.251 0 0 1-.073.073 1.094 1.094 0 0 1-.394.073.925.925 0 0 1-.5-.2 3.5 3.5 0 0 1-.606-.562 7.514 7.514 0 0 1-.708-1q-.394-.642-.818-1.518l-.234-.424q-.219-.409-.6-1.19t-.672-1.511a.963.963 0 0 0-.35-.467l-.063-.048a1 1 0 0 0-.234-.124 1.55 1.55 0 0 0-.336-.095l-4 .029a1.017 1.017 0 0 0-.832.278l-.058.088a.472.472 0 0 0-.044.234 1.162 1.162 0 0 0 .088.394q.876 2.059 1.905 3.972t1.789 3.081q.759 1.168 1.548 2.2t1.044 1.329q.256.292.4.438l.365.35a8.659 8.659 0 0 0 1.029.84 17.563 17.563 0 0 0 1.5.964 8.16 8.16 0 0 0 1.92.774 6.639 6.639 0 0 0 2.132.241h1.684a1.163 1.163 0 0 0 .774-.321l.058-.073a.968.968 0 0 0 .109-.27 1.483 1.483 0 0 0 .051-.4 4.811 4.811 0 0 1 .095-1.131 2.975 2.975 0 0 1 .248-.759 1.866 1.866 0 0 1 .314-.43 1.27 1.27 0 0 1 .249-.212.959.959 0 0 1 .116-.051.927.927 0 0 1 .825.227 4.846 4.846 0 0 1 .891.847q.416.5 1 1.131a6.875 6.875 0 0 0 1.022.935l.292.175a3.555 3.555 0 0 0 .76.321 1.637 1.637 0 0 0 .817.073l3.738-.058a1.694 1.694 0 0 0 .861-.183.724.724 0 0 0 .365-.4 1.131 1.131 0 0 0 .007-.5 1.833 1.833 0 0 0-.097-.384z" fill="#818282"/></svg>